<?xml version="1.0" standalone="no"?>
<!DOCTYPE svg PUBLIC "-//W3C//DTD SVG 20010904//EN"
 "http://www.w3.org/TR/2001/REC-SVG-20010904/DTD/svg10.dtd">
<svg version="1.0" xmlns="http://www.w3.org/2000/svg"
 width="260.000000pt" height="260.000000pt" viewBox="0 0 260.000000 260.000000"
 preserveAspectRatio="xMidYMid meet">
<metadata>
Created by potrace 1.11, written by Peter Selinger 2001-2013
</metadata>
<g transform="translate(0.000000,260.000000) scale(0.100000,-0.100000)"
fill="#000000" stroke="none">
<path d="M689 2166 c-71 -20 -167 -76 -226 -129 -60 -56 -107 -143 -125 -234
-6 -32 -16 -64 -22 -72 -8 -11 -8 -13 1 -7 14 8 18 -6 6 -18 -12 -11 -12 -37
-1 -30 7 4 8 2 4 -4 -11 -19 -16 -54 -9 -66 10 -16 11 -46 1 -40 -4 3 -8 0 -8
-5 0 -6 4 -11 8 -11 24 0 1 -38 -60 -101 -69 -71 -102 -123 -113 -175 -12 -60
-13 -79 -1 -86 8 -6 7 -8 -2 -8 -10 0 -10 -5 -1 -21 9 -17 8 -20 -3 -14 -10 6
-10 5 -1 -5 9 -10 9 -18 1 -34 -10 -19 -10 -20 5 -8 14 12 16 11 12 -7 -2 -12
1 -21 8 -21 7 0 6 -4 -3 -10 -13 -8 -13 -10 2 -10 12 0 16 -5 11 -17 -3 -10
-3 -15 2 -11 8 8 50 -39 50 -56 0 -5 9 -13 20 -18 18 -8 18 -8 -2 -4 -13 2
-23 0 -23 -5 0 -5 8 -9 19 -9 10 0 25 -8 32 -17 8 -9 9 -14 3 -10 -6 3 -11 0
-11 -8 0 -10 6 -11 24 -4 22 8 23 7 12 -13 -10 -18 -9 -20 5 -15 16 6 41 -24
30 -36 -3 -3 3 -3 15 0 11 3 18 9 15 14 -3 5 3 6 12 2 11 -4 13 -8 6 -11 -23
-7 -11 -18 19 -16 19 1 37 -5 48 -18 14 -14 21 -16 26 -7 5 8 4 10 -3 5 -7 -4
-12 -2 -12 3 0 16 11 13 32 -6 11 -10 19 -13 18 -8 -4 20 0 35 10 35 5 0 7 -8
4 -17 -4 -13 -3 -14 3 -5 6 7 18 10 29 6 18 -6 18 -6 -1 10 -11 9 -15 16 -10
15 6 -1 19 -1 30 0 15 1 17 3 6 10 -11 7 -9 10 9 16 12 4 19 10 14 14 -14 10
-16 34 -3 25 8 -5 10 1 7 19 -4 20 -2 24 11 19 13 -4 14 -3 5 9 -6 8 -12 35
-13 61 -2 56 -2 55 -41 191 -17 60 -27 113 -24 119 5 7 2 8 -6 3 -10 -6 -12 0
-8 23 2 17 1 29 -3 26 -4 -2 -8 4 -7 13 0 10 -3 28 -6 41 -3 15 0 25 9 29 8 3
12 10 8 16 -4 6 -1 7 7 2 10 -6 9 -11 -5 -22 -11 -7 -14 -13 -8 -13 7 0 14 4
17 9 4 5 17 8 31 6 22 -2 23 0 13 13 -9 11 -9 14 -1 9 6 -4 16 0 21 8 8 15 10
15 22 0 11 -13 10 -15 -4 -9 -9 3 -16 2 -16 -4 0 -6 8 -9 18 -7 9 1 16 10 16
19 -2 13 1 14 12 5 11 -9 14 -9 14 0 0 8 6 7 16 -3 19 -20 31 -21 15 -2 -9 10
-7 17 6 27 16 13 17 12 5 -2 -10 -14 -10 -18 2 -22 9 -4 18 -1 22 5 5 7 2 8
-7 3 -12 -8 -12 -6 0 8 14 17 26 24 17 9 -2 -4 -1 -14 5 -22 7 -12 9 -11 9 4
0 20 0 20 15 0 11 -14 14 -15 9 -3 -3 10 0 20 7 25 7 4 10 3 6 -2 -3 -6 4 -16
16 -24 20 -12 21 -12 8 3 -16 20 -1 23 18 5 7 -7 11 -8 9 -3 -2 6 2 10 7 10 6
0 9 -4 7 -8 -1 -5 2 -6 8 -2 6 3 8 11 5 16 -4 5 -1 9 4 9 6 0 11 -4 11 -8 0
-5 7 -9 15 -9 11 0 12 4 3 14 -8 11 -7 12 6 7 9 -3 16 -14 16 -23 0 -13 2 -14
9 -1 6 8 8 17 6 20 -2 4 2 7 10 7 8 0 15 -7 15 -16 0 -12 3 -11 13 4 11 14 16
15 22 5 5 -9 4 -11 -3 -6 -7 4 -12 2 -12 -3 0 -13 17 -14 24 -2 3 5 17 11 31
13 20 4 23 3 14 -8 -14 -17 2 -19 19 -2 9 9 12 9 13 -3 0 -9 4 -6 9 6 7 16 9
17 9 3 1 -22 17 -32 27 -17 4 8 3 9 -4 5 -8 -5 -10 -1 -5 10 5 15 7 15 15 0 5
-9 14 -16 21 -16 9 0 9 2 0 8 -8 5 -3 11 15 20 19 9 23 9 14 0 -17 -17 -15
-27 6 -23 9 2 21 4 25 4 5 1 6 5 2 10 -3 5 0 13 6 17 8 4 9 3 5 -4 -4 -7 -2
-12 4 -12 6 0 8 -5 4 -11 -3 -6 4 -4 17 5 17 10 29 12 39 6 21 -13 33 -12 24
2 -5 7 -2 9 8 5 22 -8 61 21 53 40 -4 13 -3 14 10 3 13 -11 14 -10 9 5 -5 13
-4 16 4 11 8 -5 12 2 12 19 0 14 4 24 9 20 5 -3 13 0 17 6 4 7 3 9 -4 5 -6 -3
-13 -2 -17 4 -3 5 0 10 7 10 9 0 9 3 -2 10 -12 8 -12 10 5 10 15 0 17 2 6 9
-9 6 -10 10 -2 16 7 4 8 12 4 18 -5 7 -10 26 -11 42 -5 51 -61 153 -113 205
-92 92 -232 174 -349 204 -88 23 -223 29 -281 12z m200 -118 c-12 -8 -11 -9 1
-5 8 2 14 13 12 23 -2 14 3 10 19 -11 11 -16 19 -22 15 -12 -3 9 -1 17 4 17 6
0 10 -5 10 -11 0 -5 5 -7 10 -4 6 3 10 0 10 -7 0 -9 3 -9 10 2 8 13 10 13 10
-2 0 -12 5 -15 17 -11 11 4 14 3 9 -5 -4 -7 -2 -13 3 -13 6 -1 15 -2 21 -3 5
0 15 -7 22 -15 10 -10 10 -12 1 -7 -7 4 -13 2 -13 -3 0 -6 4 -11 8 -11 21 0 8
-47 -21 -73 -25 -23 -505 -267 -527 -268 -3 -1 -11 -5 -17 -11 -10 -8 -12 -1
-11 26 1 20 5 33 11 29 6 -4 7 -1 2 8 -5 7 -9 28 -10 46 0 26 2 30 14 20 12
-10 12 -9 1 13 -11 21 -11 23 1 13 11 -9 14 -6 16 14 1 19 -1 22 -8 12 -6 -10
-9 -11 -9 -1 0 7 7 15 15 18 8 3 17 14 20 25 4 11 11 16 18 12 7 -3 3 4 -8 18
-12 14 -14 19 -4 11 13 -10 19 -9 29 3 11 13 10 14 -6 9 -13 -5 -9 2 11 21 17
16 29 35 27 43 -3 12 0 12 13 -2 19 -19 29 -21 19 -4 -5 8 -2 9 10 5 11 -5 15
-3 10 5 -5 8 -2 9 11 4 14 -5 16 -4 7 7 -9 11 -6 17 12 27 13 7 30 9 37 5 7
-5 10 -4 6 2 -4 6 1 17 11 25 22 18 72 23 72 7 0 -7 3 -9 6 -6 4 4 2 12 -4 20
-8 10 -6 13 8 13 10 0 17 -4 14 -8 -2 -4 5 -6 16 -5 12 1 19 6 15 14 -3 11 0
11 17 2 17 -9 18 -13 7 -21z m-239 -68 c0 -5 -5 -10 -11 -10 -5 0 -7 5 -4 10
3 6 8 10 11 10 2 0 4 -4 4 -10z m760 -380 c0 -5 -5 -10 -11 -10 -5 0 -7 5 -4
10 3 6 8 10 11 10 2 0 4 -4 4 -10z m-35 -49 c3 -6 -3 -15 -14 -21 -14 -7 -22
-7 -26 0 -4 6 -3 10 2 9 20 -3 34 2 28 11 -3 6 -4 10 -1 10 3 0 7 -4 11 -9z
m-1038 -244 c-2 -7 -1 -21 3 -32 4 -11 3 -26 -4 -34 -9 -12 -8 -13 2 -7 12 7
12 4 2 -14 -8 -15 -8 -20 -1 -16 6 4 11 3 11 -3 0 -5 -4 -12 -9 -15 -5 -3 -7
-18 -5 -33 1 -16 0 -43 -4 -61 l-7 -32 -37 25 c-21 14 -38 32 -38 40 0 8 -5
15 -11 15 -6 0 -9 7 -5 15 3 8 2 15 -2 15 -4 0 -8 11 -8 25 -1 17 3 25 14 25
13 0 12 3 -4 15 -18 14 -18 14 3 10 17 -3 20 0 16 12 -5 12 -3 14 8 8 11 -7
11 -5 -1 10 -14 17 -13 18 2 13 21 -9 31 2 16 19 -9 11 -7 12 15 4 18 -7 28
-7 33 1 4 6 3 8 -3 5 -6 -4 -14 0 -17 8 -5 13 -2 14 15 4 11 -6 19 -16 16 -22z"/>
<path d="M745 2031 c-3 -5 -2 -12 3 -15 5 -3 9 1 9 9 0 17 -3 19 -12 6z"/>
<path d="M2316 1293 c-14 -7 -28 -22 -31 -34 -10 -31 -12 -159 -3 -153 7 5 12
-11 9 -29 -1 -5 3 -6 9 -2 6 3 8 11 5 16 -3 5 1 6 10 3 8 -4 23 0 32 7 12 10
15 10 9 2 -10 -17 21 -22 64 -9 18 5 26 15 28 33 1 14 8 33 15 41 6 9 7 13 1
9 -7 -4 -9 2 -6 19 3 19 7 22 13 12 5 -7 9 -9 9 -5 0 4 -7 19 -16 32 -9 14
-12 25 -6 25 14 0 3 40 -12 41 -55 6 -110 3 -130 -8z m-6 -167 c0 -3 -4 -8
-10 -11 -5 -3 -10 -1 -10 4 0 6 5 11 10 11 6 0 10 -2 10 -4z m104 -20 c-10 -8
-21 -12 -24 -10 -5 6 21 24 34 24 6 0 1 -6 -10 -14z"/>
<path d="M1067 1261 c-80 -21 -140 -60 -181 -119 -25 -35 -31 -55 -34 -111 -3
-44 1 -77 9 -92 18 -34 18 -58 0 -70 -12 -7 -10 -8 9 -4 19 4 28 0 39 -17 l14
-23 -22 19 c-16 15 -20 16 -16 4 3 -8 17 -20 31 -26 13 -7 24 -20 25 -29 0
-16 2 -15 9 2 6 14 9 16 10 5 2 -8 2 -18 1 -22 0 -4 10 -5 24 -2 13 2 28 -1
32 -8 10 -15 35 -17 46 -3 5 6 5 -1 2 -14 -5 -15 -3 -21 3 -17 15 9 43 -4 35
-18 -4 -8 -2 -8 7 1 13 12 60 -2 60 -19 0 -4 3 -7 8 -7 22 4 34 -3 29 -15 -4
-10 0 -14 13 -11 12 2 17 -2 15 -13 -2 -9 -4 -21 -4 -25 -1 -5 -5 -6 -10 -3
-5 3 -8 -2 -7 -11 3 -37 -107 -60 -213 -44 -87 13 -118 -8 -123 -82 -2 -20 -6
-37 -9 -37 -3 0 -6 -7 -6 -15 0 -8 4 -12 8 -10 3 3 12 -2 19 -10 7 -8 9 -15 4
-15 -5 0 -2 -5 6 -11 13 -9 12 -10 -2 -5 -10 3 -20 0 -24 -7 -4 -7 -4 -9 1 -5
4 4 16 3 26 -3 11 -5 19 -6 18 -2 -3 20 2 22 21 6 24 -21 65 -26 48 -6 -8 11
-7 12 6 7 9 -3 16 -9 16 -13 0 -4 7 -8 15 -8 13 0 12 4 -2 21 -16 19 -16 19
-1 7 9 -7 22 -10 27 -6 6 3 8 0 6 -8 -4 -9 3 -13 25 -13 20 0 29 4 26 12 -3 8
2 11 17 8 30 -5 59 5 51 18 -5 7 -2 8 5 4 9 -6 8 -13 -6 -29 -18 -20 -18 -20
7 -5 14 9 33 14 43 13 19 -4 41 27 29 41 -4 5 1 2 11 -5 11 -9 17 -10 17 -2 0
6 11 13 25 17 23 6 30 15 26 37 -1 5 3 6 8 3 12 -8 41 3 41 16 0 5 -5 6 -12 2
-7 -4 -8 -3 -4 4 4 6 13 9 21 5 11 -4 13 -1 8 13 -5 13 -3 15 7 9 10 -6 12 -3
7 14 -4 19 -2 21 16 16 20 -5 20 -5 4 5 -14 9 -16 15 -6 26 6 7 9 20 6 28 -3
7 1 23 9 34 8 11 10 23 6 26 -5 3 -9 22 -10 42 -2 49 -42 114 -91 148 -21 15
-81 43 -132 62 -98 37 -153 70 -144 85 4 5 1 9 -6 9 -8 0 -7 5 2 17 10 11 10
14 2 9 -7 -4 -13 -2 -13 3 0 6 9 11 21 11 15 0 19 5 15 16 -3 8 -2 12 4 9 6
-3 10 -1 10 6 0 7 6 5 13 -6 11 -14 16 -15 22 -5 6 9 4 11 -6 5 -8 -5 -5 1 5
13 20 24 36 31 17 9 -6 -8 -8 -17 -5 -20 4 -3 14 3 24 15 13 17 17 18 17 5 0
-9 -3 -14 -7 -12 -4 2 -7 -2 -7 -9 0 -11 4 -12 18 -3 10 6 16 15 13 19 -3 4 2
5 10 2 9 -3 14 -10 11 -14 -3 -5 0 -12 6 -16 7 -4 9 -3 5 4 -3 6 -2 13 4 17 5
3 10 2 10 -3 0 -5 7 -9 15 -9 11 0 12 4 3 14 -8 11 -7 12 6 7 9 -3 16 -10 16
-15 0 -5 5 -9 11 -9 5 0 8 4 4 9 -3 5 0 13 6 17 8 4 9 3 5 -4 -11 -18 4 -14
22 6 10 10 13 13 9 6 -5 -7 -2 -15 5 -20 7 -4 10 -3 5 1 -4 5 1 17 10 28 10
11 13 17 7 14 -7 -4 -14 0 -17 8 -4 10 -1 12 10 8 11 -4 14 -3 9 6 -4 6 -2 18
4 26 7 8 8 15 3 15 -5 0 -9 15 -8 34 2 43 -11 47 -145 52 -67 2 -115 -3 -163
-15z"/>
<path d="M1559 1243 c-1 -15 -1 -32 0 -37 1 -5 -6 -18 -16 -30 -17 -19 -17
-20 0 -7 15 12 17 11 14 -5 -1 -11 -7 -25 -11 -33 -6 -10 -5 -12 2 -7 19 12
14 -12 -5 -24 -17 -11 -17 -11 0 -6 12 4 17 0 17 -14 0 -11 -6 -20 -12 -20 -9
0 -8 -4 2 -10 13 -9 12 -13 -5 -27 -16 -13 -17 -15 -3 -10 13 5 17 1 15 -13
-2 -11 -6 -23 -10 -26 -4 -4 -2 -13 4 -21 9 -10 8 -13 -2 -13 -11 0 -11 -2 1
-10 13 -9 12 -13 -5 -27 -14 -11 -15 -14 -4 -10 12 4 17 -1 17 -19 0 -14 -5
-21 -11 -17 -6 4 -7 1 -2 -8 11 -16 15 -120 5 -114 -4 2 -7 -2 -7 -10 0 -8 4
-12 9 -9 4 3 8 -2 8 -11 0 -10 -5 -13 -12 -9 -10 6 -10 4 0 -8 11 -14 10 -18
-5 -28 -14 -9 -14 -10 -2 -7 12 4 17 -1 17 -19 0 -14 -5 -21 -11 -17 -6 4 -7
1 -1 -8 11 -18 12 -109 1 -116 -4 -2 -3 -11 4 -19 9 -11 8 -14 -2 -14 -11 0
-11 -2 1 -10 8 -5 11 -10 5 -10 -5 0 -3 -5 5 -10 11 -7 11 -10 2 -10 -7 0 -10
-5 -7 -10 4 -6 12 -7 18 -3 7 3 3 -4 -8 -18 -11 -13 -16 -21 -11 -17 5 4 15 3
22 -2 8 -8 17 -6 28 6 16 15 18 15 38 -2 12 -11 19 -14 15 -9 -3 6 3 17 15 24
11 7 17 8 14 2 -4 -5 2 -9 13 -8 11 0 17 6 14 14 -3 8 3 13 18 13 22 0 22 0 3
15 -10 8 -14 15 -9 14 22 -3 29 2 15 11 -11 7 -11 10 -2 10 7 0 10 5 7 10 -4
6 -1 18 7 27 10 14 10 15 0 9 -16 -10 -13 25 3 36 6 5 6 8 -1 8 -6 0 -10 12
-9 28 1 17 7 26 16 24 10 -3 10 1 -2 15 -20 22 -15 39 14 55 19 10 20 9 9 -4
-10 -13 -10 -18 -1 -24 8 -5 9 -3 4 5 -5 9 0 12 16 11 45 -4 59 0 60 18 0 15
1 15 8 -2 7 -19 8 -19 14 -1 4 10 10 15 14 12 3 -4 13 -1 21 6 11 8 14 8 9 0
-4 -6 -3 -14 3 -18 5 -3 10 -1 10 5 0 6 5 8 11 5 5 -4 21 5 34 19 23 25 41 31
75 26 13 -1 13 0 0 12 -8 7 -13 12 -11 11 2 -2 10 5 18 15 12 16 13 15 7 -3
-5 -15 -4 -17 5 -9 7 6 13 20 14 32 1 16 4 18 14 11 9 -8 11 -6 8 11 -3 18 -2
20 10 10 11 -9 12 -7 8 12 -4 18 -3 20 6 8 6 -8 11 -10 11 -4 0 5 -6 16 -12
23 -8 8 -8 11 -2 8 7 -4 14 5 18 26 8 43 10 50 20 66 6 10 5 12 -2 7 -7 -4
-12 -1 -12 9 0 10 5 13 13 9 9 -6 9 -5 0 7 -10 12 -10 18 0 29 10 10 9 11 -1
5 -10 -5 -13 -2 -11 11 1 11 -1 28 -5 39 -5 11 -13 33 -18 48 -15 38 -86 98
-144 121 -41 16 -82 20 -241 24 l-193 4 -1 -29z m269 -150 c-3 -21 28 -26 51
-9 11 8 13 8 7 -1 -4 -8 -2 -13 4 -13 6 0 9 -4 6 -8 -3 -5 1 -9 8 -9 8 0 12 7
9 16 -3 12 -1 11 11 -3 8 -10 13 -23 10 -27 -3 -5 5 -9 18 -10 22 0 22 -1 3
-9 -17 -7 -17 -9 -3 -9 13 -1 17 -8 14 -28 -7 -54 -19 -74 -60 -98 -43 -24
-132 -40 -142 -24 -3 5 -10 7 -15 4 -14 -9 -11 19 4 34 10 11 10 13 0 7 -8 -4
-13 -2 -13 6 0 8 6 20 13 27 10 11 10 13 0 7 -8 -4 -13 -2 -13 6 0 8 6 20 13
27 10 11 10 13 0 7 -15 -8 -18 10 -3 19 6 3 10 12 10 18 0 7 -4 6 -10 -3 -9
-13 -9 8 -1 63 0 4 15 6 33 5 18 -1 33 3 36 10 6 18 13 14 10 -5z m42 -1 c0
-5 -7 -9 -15 -9 -8 0 -12 4 -9 9 3 4 9 8 15 8 5 0 9 -4 9 -8z m100 -392 c0 -5
-4 -10 -10 -10 -5 0 -10 5 -10 10 0 6 5 10 10 10 6 0 10 -4 10 -10z m-120 -24
c0 -2 -7 -7 -16 -10 -8 -3 -12 -2 -9 4 6 10 25 14 25 6z m-260 -296 c0 -5 -2
-10 -4 -10 -3 0 -8 5 -11 10 -3 6 -1 10 4 10 6 0 11 -4 11 -10z"/>
<path d="M2332 1042 c-31 -5 -54 -45 -54 -92 1 -29 -3 -38 -11 -33 -9 5 -9 3
-1 -8 15 -21 11 -78 -6 -90 -13 -9 -13 -10 1 -6 12 4 17 -1 17 -19 0 -13 -4
-22 -8 -19 -3 2 -7 -2 -7 -10 0 -8 4 -12 9 -9 4 3 8 0 8 -5 0 -6 -6 -11 -12
-11 -9 0 -8 -4 2 -10 13 -9 12 -13 -5 -27 -16 -13 -17 -15 -3 -10 19 7 21 -15
4 -42 -6 -10 -5 -12 2 -7 19 12 14 -12 -5 -24 -15 -9 -15 -11 -2 -7 12 4 17
-1 17 -19 0 -13 -4 -22 -8 -19 -3 2 -7 -2 -7 -10 0 -8 4 -12 9 -9 4 3 8 0 8
-5 0 -6 -6 -11 -12 -11 -9 0 -8 -4 2 -10 13 -9 12 -13 -5 -27 -14 -11 -15 -14
-4 -10 12 4 17 -1 17 -19 0 -13 -5 -21 -10 -18 -6 4 -5 -3 1 -14 8 -15 8 -22
-2 -25 -6 -3 -1 -6 13 -7 24 -1 24 -1 6 -15 -11 -8 -14 -16 -8 -16 12 -2 26
-5 40 -9 4 -1 11 -2 16 -1 5 1 13 -4 18 -11 6 -9 7 -5 3 10 -4 13 -2 22 4 22
6 0 11 -4 11 -9 0 -5 7 -12 16 -15 15 -6 15 -4 3 10 -13 16 -12 16 9 5 18 -10
23 -9 28 4 3 8 11 12 18 8 6 -4 4 2 -4 12 -14 17 -13 18 3 12 11 -4 17 -1 17
9 0 9 -5 12 -12 8 -10 -6 -10 -5 -1 8 7 8 10 18 6 21 -3 4 -2 7 3 7 6 0 9 34
8 82 -2 56 1 85 9 90 8 5 9 8 1 8 -16 0 -15 142 0 152 8 5 8 8 0 8 -7 0 -11
36 -12 101 -2 135 -2 135 -60 135 -26 0 -57 -1 -70 -4z m-2 -662 c0 -5 -2 -10
-4 -10 -3 0 -8 5 -11 10 -3 6 -1 10 4 10 6 0 11 -4 11 -10z"/>
<path d="M200 980 c0 -5 5 -10 11 -10 5 0 7 5 4 10 -3 6 -8 10 -11 10 -2 0 -4
-4 -4 -10z"/>
<path d="M849 929 c5 -6 7 -17 5 -24 -3 -7 -1 -15 4 -19 13 -8 8 33 -6 44 -8
7 -9 7 -3 -1z"/>
<path d="M415 800 c-3 -5 -1 -10 4 -10 6 0 11 5 11 10 0 6 -2 10 -4 10 -3 0
-8 -4 -11 -10z"/>
<path d="M2000 710 c-8 -5 -12 -11 -10 -14 3 -2 14 2 24 10 22 15 10 19 -14 4z"/>
<path d="M1896 668 c3 -5 10 -6 15 -3 13 9 11 12 -6 12 -8 0 -12 -4 -9 -9z"/>
<path d="M1295 409 c-4 -6 -4 -13 -1 -16 3 -4 6 -1 6 6 0 7 5 9 12 5 7 -4 8
-3 4 4 -9 15 -13 15 -21 1z"/>
<path d="M865 400 c-3 -6 1 -7 9 -4 18 7 21 14 7 14 -6 0 -13 -4 -16 -10z"/>
<path d="M1620 371 c0 -6 4 -13 10 -16 6 -3 7 1 4 9 -7 18 -14 21 -14 7z"/>
</g>
</svg>
